<?xml version="1.0" encoding="utf-8"?>
<!-- Generator: Adobe Illustrator 27.5.0, SVG Export Plug-In . SVG Version: 6.00 Build 0)  -->
<svg version="1.1" xmlns="http://www.w3.org/2000/svg" xmlns:xlink="http://www.w3.org/1999/xlink" x="0px" y="0px"
	 viewBox="0 0 750 500" style="enable-background:new 0 0 750 500;" xml:space="preserve">
<g id="BACKGROUND">
	<rect style="fill:#E1D5FA;" width="750" height="500"/>
	<g>
		<path style="opacity:0.62;fill:#E1D5FA;" d="M462.58,415.904c155.517,32.966,256.296-77.963,186.342-124.512
			s-120.229-42.072-100.215-106.73c20.014-64.658,66.798-140.814-32.988-143.728c-99.786-2.914-134.172,88.227-214.8,123.242
			c-80.628,35.016-110.131-76.363-168.979-41.635c-58.847,34.728-50.946,103.565-7.849,152.528
			c43.097,48.962-41.974,24.023-43.691,83.074s238.113,78.871,321.517,72.612C485.322,424.495,462.58,415.904,462.58,415.904z"/>
		<path style="opacity:0.62;fill:#E1D5FA;" d="M226.422,118.234c23.409,40.415,128.404,8.841,101.06-37.44
			C300.137,34.513,205.033,81.308,226.422,118.234z"/>
	</g>
</g>
<g id="OBJECTS">
	<g>
		<g>
			<g>
				<g>
					<path style="fill:#C7AFD9;" d="M654.398,334.636c11.35,11.754,26.256,22.095,28.12,21.117
						c1.863-0.978-12.999-16.448-17.711-18.002C660.094,336.197,654.398,334.636,654.398,334.636z"/>
					<path style="fill:#C7AFD9;" d="M634.228,332.264c16.614-1.867,27.017-4.818,24.533-8.234
						c-2.484-3.416-14.906-0.466-20.962,2.018c-6.056,2.484-11.878,7.177-11.878,7.177L634.228,332.264z"/>
					<path style="fill:#C7AFD9;" d="M613.8,336.487c17.012-12.145,29.589-22.548,24-24.256s-32.277,23.018-33.684,28.434
						L613.8,336.487z"/>
					<path style="fill:#C7AFD9;" d="M630.498,332.697c16.307,6.241,27.021,12.141,24.536,14.47
						c-2.484,2.329-38.115-11.725-37.544-11.898C618.063,335.095,630.498,332.697,630.498,332.697z"/>
					<path style="fill:#C7AFD9;" d="M592.485,347.925c16.9,0.017,24.508,1.818,38.328,7.827
						c13.819,6.009,28.415,12.596,13.043,0.064c-15.372-12.532-30.403-14.051-38.663-12.532c-8.26,1.519-8.905,1.942-8.905,1.942
						L592.485,347.925z"/>
					<path style="fill:#C7AFD9;" d="M583.8,355.753c-0.657-14.176,23.411-44.765,25.119-39.175
						c1.708,5.59-20.309,34.507-20.309,34.507L583.8,355.753z"/>
					<path style="fill:#C7AFD9;" d="M577.382,364.14c15.078-0.204,43.959,4.241,42.095,0c-1.863-4.241-23.786-8.285-38.988-4.477
						L577.382,364.14z"/>
					<path style="fill:#C7AFD9;" d="M682.679,345.766c11.571,7.239,6.671-3.102-6.527-8.071
						c-13.198-4.969-21.753-3.059-21.753-3.059S671.504,338.776,682.679,345.766z"/>
				</g>
				<path style="fill:#C7AFD9;" d="M659.127,308.814c-0.314,4.762,19.975,2.484,18.319-1.035S659.44,304.052,659.127,308.814z"/>
			</g>
			<path style="fill:none;stroke:#AC89B8;stroke-width:0.5;stroke-linecap:round;stroke-linejoin:round;stroke-miterlimit:10;" d="
				M571.343,379.308c5.9-30.433,44.408-49.376,70.183-46.892c4.459,0.43,8.779,1.213,12.874,2.214"/>
		</g>
		<g>
			<g>
				<g>
					<path style="fill:#C7AFD9;" d="M657.83,230.091c-4.041-4.639-36.315,4.767-34.849,11.855
						C624.446,249.035,662.022,234.905,657.83,230.091z"/>
					<path style="fill:#C7AFD9;" d="M610.311,248.857c11.651-11.623,26.712-28.237,20.967-28.858
						c-5.745-0.621-24.283,31.287-24.283,31.287L610.311,248.857z"/>
					<path style="fill:#C7AFD9;" d="M599.414,258.01c19.132,2.359,43.405-8.82,39.731-10.994c-3.674-2.174-24.249,3.312-36.709,8.1
						L599.414,258.01z"/>
					<path style="fill:#C7AFD9;" d="M584.552,278.076c-1.408-18.638,12.101-45.966,17.225-46.743
						c5.124-0.776-10.724,36.523-10.724,36.523L584.552,278.076z"/>
					<path style="fill:#C7AFD9;" d="M576.074,298.017c27.1-19.325,43.093-28.952,37.193-33.145
						c-5.9-4.192-29.256,14.725-34.037,24.365L576.074,298.017z"/>
					<path style="fill:#C7AFD9;" d="M571.623,318.541c-11.149-19.871-7.008-52.845-1.625-54.266s3.353,44.077,3.353,44.077
						L571.623,318.541z"/>
					<path style="fill:#C7AFD9;" d="M570.709,340.664c13.367-16.737,26.044-34.127,22.914-37.44
						c-3.13-3.313-19.497,17.176-22.907,31.051L570.709,340.664z"/>
				</g>
				<path style="fill:none;stroke:#AC89B8;stroke-width:0.5;stroke-linecap:round;stroke-linejoin:round;stroke-miterlimit:10;" d="
					M571.343,345.226c-4.536-42.719,15.521-88.308,51.636-103.282"/>
			</g>
			<path style="fill:#C7AFD9;" d="M652.188,218.549c0.357,3.092,11.801,0.414,11.801-2.277
				C663.989,213.581,651.567,213.167,652.188,218.549z"/>
		</g>
		<g>
			<g>
				<g>
					<g>
						<path style="fill:#C7AFD9;" d="M412.594,285.716c8.601,7.416,19.78,32.245,14.656,33.339
							C422.126,320.149,412.594,285.716,412.594,285.716z"/>
						<path style="fill:#C7AFD9;" d="M400.587,270.881c11.757,3.928,21.694,16.35,26.508,17.437
							c4.813,1.087-2.795-9.627-12.267-14.751C405.357,268.444,400.587,270.881,400.587,270.881z"/>
						<path style="fill:#C7AFD9;" d="M388.088,263.551c8.884,13.743,12.265,30.047,17.424,31.289
							C415.216,297.176,401.165,272.17,388.088,263.551z"/>
						<path style="fill:#C7AFD9;" d="M347.531,276.445c15.115,3.868,11.182,22.652,16.341,23.894
							C373.576,302.676,366.279,269.051,347.531,276.445z"/>
						<path style="fill:#C7AFD9;" d="M375.964,261.917c8.121-4.964,36.38-7.138,41.97-2.014c5.59,5.124-19.099,3.177-27.017,1.977
							C382.998,260.68,375.964,261.917,375.964,261.917z"/>
						<path style="fill:#C7AFD9;" d="M362.646,265.47c11.346-0.443,12.836,22.927,21.594,22.925
							C394.748,288.393,378.806,258.817,362.646,265.47z"/>
						<path style="fill:#C7AFD9;" d="M356.774,269.051c5.884-12.563,27.932-26.072,29.796-22.656
							C388.432,249.811,356.774,269.051,356.774,269.051z"/>
					</g>
					
						<path style="fill:none;stroke:#AC89B8;stroke-width:0.5;stroke-linecap:round;stroke-linejoin:round;stroke-miterlimit:10;" d="
						M341.437,285.42c17.183-24.844,34.988-26.293,48.859-21.117c10.675,3.983,19.02,16.059,22.299,21.413"/>
				</g>
				<path style="fill:#C7AFD9;" d="M435.635,319.062c-4.353-0.415,0.155,17.856,4.503,16.614S438.896,319.373,435.635,319.062z"/>
			</g>
			<g>
				<g>
					<g>
						<g>
							<path style="fill:#C7AFD9;" d="M178.712,233.041c3.727,4.555,32.907,7.876,32.907,7.876s-8.892-6.634-20.279-9.532
								C179.954,228.487,178.712,233.041,178.712,233.041z"/>
							<path style="fill:#C7AFD9;" d="M215.229,242.838c-7.327-9.382-22.854-33.812-26.787-30.706
								c-3.934,3.105,7.246,13.183,12.629,18.289C206.454,235.526,215.229,242.838,215.229,242.838z"/>
							<path style="fill:#C7AFD9;" d="M229.642,253.355c-11.181-14.724-12.009-46.4-16.978-44.743
								c-4.969,1.656,1.863,22.773,5.797,30.019C222.395,245.877,229.642,253.355,229.642,253.355z"/>
							<path style="fill:#C7AFD9;" d="M244.797,269.163c-9.98-19.353-0.871-51.649-7.496-54.962
								c-6.625-3.312-6.252,20.132-3.52,32.918C236.514,259.905,244.797,269.163,244.797,269.163z"/>
						</g>
						
							<path style="fill:none;stroke:#AC89B8;stroke-width:0.5;stroke-linecap:round;stroke-linejoin:round;stroke-miterlimit:10;" d="
							M211.62,240.914c25.053,12.266,50.918,47.45,59.116,73.801"/>
					</g>
					<g>
						<g>
							<path style="fill:#C7AFD9;" d="M235.438,284.992c-13.457,4.361-31.588,16.369-34.013,10.779
								C199.001,290.182,235.438,284.992,235.438,284.992z"/>
							<path style="fill:#C7AFD9;" d="M225.5,276.42c-21.531-5.285-50.515-0.73-51.964,2.996
								c-1.449,3.727,37.385,0.077,37.385,0.077L225.5,276.42z"/>
							<path style="fill:#C7AFD9;" d="M191.062,288.826c-24.772,13.156-39.057,22.058-38.85,13.984
								c0.207-8.074,35.777-16.669,47.286-18.686L191.062,288.826z"/>
							<path style="fill:#C7AFD9;" d="M175.854,300.43c-6.666,10.04-23.228,33.642-26.127,27.017
								C146.829,320.822,175.854,300.43,175.854,300.43z"/>
						</g>
						
							<path style="fill:none;stroke:#AC89B8;stroke-width:0.5;stroke-linecap:round;stroke-linejoin:round;stroke-miterlimit:10;" d="
							M175.854,300.43c25.388-23.199,52.712-26.917,63.052-22.256c11.024,4.969,15.579,10.13,19.926,15.727"/>
						<path style="fill:#C7AFD9;" d="M266.118,302.81c-5.215-4.762-25.918-7.66-39.582-2.07
							c-13.664,5.59,12.37-22.773,32.711-14.078C270.228,291.357,266.118,302.81,266.118,302.81z"/>
					</g>
				</g>
				<g>
					<path style="fill:#C7AFD9;" d="M189.477,305.295c-2.671-6.41-13.664,4.141-12.215,6.418
						C178.712,313.99,190.512,307.779,189.477,305.295z"/>
					<path style="fill:#C7AFD9;" d="M203.555,255.815c-2.141,2.569,10.305,7.246,11.674,5.59
						C216.598,259.748,205.626,253.33,203.555,255.815z"/>
				</g>
			</g>
		</g>
		<g>
			<g>
				<g>
					<g>
						<path style="fill:#AC89B8;" d="M194.239,254.365c-15.734-4.969-55.277-21.324-68.734-20.082
							c-13.457,1.242-16.769,13.714,17.39,19.072C177.055,258.713,194.239,254.365,194.239,254.365z"/>
						<path style="opacity:0.69;fill:#AC89B8;" d="M157.269,241.413c-7.274,5.75-16.727,8.979-26.236,9.417
							c3.319,0.941,7.236,1.8,11.862,2.525c34.16,5.358,51.343,1.01,51.343,1.01C186.032,251.774,171.35,246.087,157.269,241.413z"
							/>
						
							<path style="fill:none;stroke:#E1D5FA;stroke-width:0.5;stroke-linecap:round;stroke-linejoin:round;stroke-miterlimit:10;" d="
							M117.192,237.563c27.153,2.724,74.22,16.039,74.22,16.039l-17.916-2.436c0,0-41.828-3.138-55.675-6.801"/>
					</g>
					<g>
						
							<path style="fill:none;stroke:#111530;stroke-width:0.5;stroke-linecap:round;stroke-linejoin:round;stroke-miterlimit:10;" d="
							M94.451,264.51c17.39-9.316,45.753-13.819,63.765-11.154c18.012,2.665,0,6.393,0,6.393s-30.433-14.279-69.769,17.807"/>
						<g>
							<path style="fill:#83A0FC;" d="M87.796,266.738c0.515,3.264,9.443-1.232,8.745-2.698
								C95.843,262.573,87.372,264.056,87.796,266.738z"/>
							<path style="fill:#83A0FC;" d="M91.393,275.043c-1.962-1.62-8.539,3.625-6.421,6.095
								C87.09,283.609,92.732,276.148,91.393,275.043z"/>
						</g>
					</g>
					<g>
						<path style="fill:#AC89B8;" d="M194.239,254.365c-25.319-7.195-57.761-7.246-86.952,17.805
							c-29.191,25.051-12.777,50.322,20.047,30.64C158.036,284.401,166.221,260.162,194.239,254.365z"/>
						<path style="opacity:0.69;fill:#AC89B8;" d="M166.242,250.212c-5.744,6.637-11.505,13.249-16.897,20.199
							c-6.929,8.93-14.024,18.313-23.342,24.918c-7.813,5.538-17.254,9.374-26.726,10.706c-1.187,0.167-2.346,0.24-3.491,0.271
							c5.514,5.114,16.893,5.292,31.548-3.495c30.702-18.41,38.887-42.648,66.905-48.445
							C185.599,251.91,176.129,250.29,166.242,250.212z"/>
						<g>
							
								<path style="fill:none;stroke:#E1D5FA;stroke-width:0.5;stroke-linecap:round;stroke-linejoin:round;stroke-miterlimit:10;" d="
								M103.302,309.647c21.996-11.806,31.687-25.149,51.788-38.766s32.317-16.516,39.149-16.516c0,0-15.934-4.689-44.715,13.183
								c-28.781,17.872-49.891,27.038-55.381,36.843"/>
							
								<path style="fill:none;stroke:#E1D5FA;stroke-width:0.5;stroke-linecap:round;stroke-linejoin:round;stroke-miterlimit:10;" d="
								M94.144,288.682c16.869-15.27,74.838-42.805,100.095-34.317"/>
						</g>
					</g>
					<path style="fill:#783D75;" d="M197.965,255.25c-18.426,9.674-37.288,22.26-39.957,16.713
						C154.096,263.83,183.336,248.569,197.965,255.25z"/>
				</g>
				<path style="fill:#C7AFD9;" d="M123.561,320.73c-4.175-4.538-22.023,12.612-16.565,16
					C112.455,340.118,127.89,325.436,123.561,320.73z"/>
			</g>
			<g>
				<path style="fill:#783D75;" d="M437.797,278.076c10.053,11.484,16.264,46.29,29.1,43.69c12.836-2.6,8.074-27.03-5.176-34.69
					C448.471,279.416,437.797,278.076,437.797,278.076z"/>
				<g>
					
						<path style="fill:none;stroke:#111530;stroke-width:0.5;stroke-linecap:round;stroke-linejoin:round;stroke-miterlimit:10;" d="
						M460.168,294.993c9.161,9.474,17.856,26.762,19.875,32.403"/>
					<path style="fill:#83A0FC;" d="M481.803,332.208c4.2-1.303-1.468-8.893-3.426-8.794
						C476.42,323.513,478.801,333.14,481.803,332.208z"/>
					<g>
						<path style="fill:#AC89B8;" d="M437.797,278.076c12.745,6.981,25.788,38.967,41.315,43.16
							c15.527,4.192,21.589-15.143,4.205-28.881C463.274,276.518,437.797,278.076,437.797,278.076z"/>
						<path style="opacity:0.69;fill:#AC89B8;" d="M456.89,280.068c-10.821-2.493-19.093-1.992-19.093-1.992
							c8.113,4.444,16.348,19.016,25.267,30.105C458.654,299.609,456.65,289.689,456.89,280.068z"/>
						<g>
							
								<path style="fill:none;stroke:#E1D5FA;stroke-width:0.5;stroke-linecap:round;stroke-linejoin:round;stroke-miterlimit:10;" d="
								M448.056,278.543c25.305,7.446,42.406,27.552,44.882,36.986"/>
							
								<path style="fill:none;stroke:#E1D5FA;stroke-width:0.5;stroke-linecap:round;stroke-linejoin:round;stroke-miterlimit:10;" d="
								M437.797,278.076c27.023,7.725,42.908,30.884,48.943,43.233"/>
						</g>
					</g>
				</g>
			</g>
			<g>
				<path style="fill:#C7AFD9;" d="M279.121,169.069c-5.303-4.056-16.148,20.496-12.422,20.082
					C270.426,188.737,282.64,171.761,279.121,169.069z"/>
				<g>
					<g>
						<path style="fill:#783D75;" d="M248.688,192.878c-18.426-23.187-57.14-38.921-79.292-28.777
							c-22.152,10.145-0.828,22.98,29.812,21.738C229.848,184.596,248.688,192.878,248.688,192.878z"/>
						<path style="opacity:0.62;fill:#783D75;" d="M219.027,186.338c18.733,1.743,29.661,6.539,29.661,6.539
							c-18.426-23.187-57.14-38.921-79.292-28.777c-2.066,0.946-3.752,1.915-5.089,2.894
							C184.703,165.612,202.812,174.615,219.027,186.338z"/>
						<g>
							<path style="fill:#AC89B8;" d="M248.688,192.878c-13.25-35.195-40.578-58.175-72.667-61.695
								c-32.09-3.52-34.837,10.973-15.762,22.98c19.075,12.008,42.469,14.699,57.582,20.082
								C232.953,179.628,248.688,192.878,248.688,192.878z"/>
							<path style="opacity:0.69;fill:#AC89B8;" d="M176.02,131.183c-3.513-0.385-6.653-0.543-9.473-0.524
								c1.569,0.733,3.119,1.52,4.642,2.375c8.948,5.024,17.106,11.924,24.133,19.37c5.45,5.775,10.965,12.197,14.667,19.418
								c2.788,0.772,5.434,1.561,7.85,2.422c15.113,5.383,30.848,18.633,30.848,18.633
								C235.438,157.683,208.11,134.702,176.02,131.183z"/>
							<g>
								
									<path style="fill:none;stroke:#E1D5FA;stroke-width:0.5;stroke-linecap:round;stroke-linejoin:round;stroke-miterlimit:10;" d="
									M153.723,132.779c30.228-0.309,67.943,19.956,85.801,41.166"/>
								
									<path style="fill:none;stroke:#E1D5FA;stroke-width:0.5;stroke-linecap:round;stroke-linejoin:round;stroke-miterlimit:10;" d="
									M148.32,139.667c44.379,1.716,72.221,16.051,95.921,42.912"/>
								
									<path style="fill:none;stroke:#E1D5FA;stroke-width:0.5;stroke-linecap:round;stroke-linejoin:round;stroke-miterlimit:10;" d="
									M152.961,148.447c31.548,14.411,69.02,15.032,95.727,44.43"/>
							</g>
						</g>
						<g>
							<g>
								
									<path style="fill:none;stroke:#111530;stroke-width:0.5;stroke-linecap:round;stroke-linejoin:round;stroke-miterlimit:10;" d="
									M195.165,152.3c22.882,10.145,37.673,18.846,52.43,37.786"/>
								
									<path style="fill:none;stroke:#111530;stroke-width:0.5;stroke-linecap:round;stroke-linejoin:round;stroke-miterlimit:10;" d="
									M176.434,112.55c27.328,14.906,59.426,58.83,67.807,73.409"/>
							</g>
							<g>
								<path style="fill:#83A0FC;" d="M172.087,109.859c-2.743,3.556,9.744,8.572,10.565,6.512
									C183.473,114.31,174.882,106.236,172.087,109.859z"/>
								<path style="fill:#83A0FC;" d="M188.856,149.255c-1.665,3.092,9.95,7.159,10.875,5.102
									C200.657,152.3,190.719,145.795,188.856,149.255z"/>
							</g>
						</g>
						<g>
							<path style="fill:#AC89B8;" d="M249.93,194.741c5.176-27.535,3.839-69.769-5.689-94.612
								c-9.528-24.843-38.616-40.371-46.276-14.285c-7.66,26.086,22.57,69.836,33.075,83.518
								C241.545,183.044,249.93,194.741,249.93,194.741z"/>
							<g>
								
									<path style="fill:none;stroke:#E1D5FA;stroke-width:0.5;stroke-linecap:round;stroke-linejoin:round;stroke-miterlimit:10;" d="
									M207.075,73.584c28.881,39.31,42.855,121.157,42.855,121.157c2.898-42.426-13.503-101.425-34.7-122.241"/>
								
									<path style="fill:none;stroke:#E1D5FA;stroke-width:0.5;stroke-linecap:round;stroke-linejoin:round;stroke-miterlimit:10;" d="
									M201.425,78.416c3.786,22.955,18.717,53.645,30.505,74.944c11.789,21.299,18,41.381,18,41.381s-29.654-45.236-40.602-73.185
									c-10.948-27.949-11.362-35.713-11.362-35.713"/>
							</g>
						</g>
						<path style="fill:#783D75;" d="M249.93,194.741c8.695-21.531,16.344-41.913,10.144-38.3
							C244.797,165.343,249.93,194.741,249.93,194.741z"/>
					</g>
					<path style="fill:#C7AFD9;" d="M156.766,190.086c-1.863-3.471-21.427,0.048-21.583,4.655S158.63,193.557,156.766,190.086z"/>
				</g>
			</g>
		</g>
	</g>
	<g>
		<g>
			<path style="fill:#783D75;" d="M286.419,132.775c-1.708,6.016-8.229,15.953-9.316,14.09c-1.087-1.863,5.435-13.245,5.435-13.245
				s-13.353,9.406-14.44,6.046c-1.087-3.36,12.888-8.173,12.888-8.173s-3.571-6.521-2.95-19.72
				c0.621-13.198,13.664-18.167,14.13-4.503c0.466,13.664-5.279,23.375-5.279,23.375s26.086-14.039,24.999-7.527
				C310.796,129.63,286.419,132.775,286.419,132.775z"/>
			<path style="fill:#111530;" d="M290.301,128.233c0.008-2.562-8.84,3.476-8.496,5.891
				C282.149,136.54,290.286,132.918,290.301,128.233z"/>
			<path style="fill:none;stroke:#111530;stroke-width:0.5;stroke-linecap:round;stroke-linejoin:round;stroke-miterlimit:10;" d="
				M314.626,113.482c-4.865-0.311-24.326,14.751-24.326,14.751s5.693-12.474,17.391-20.134"/>
		</g>
		<g>
			<path style="fill:#783D75;" d="M584.449,195.776c-1.616,10.766-6.171,17.184-7.206,15.527
				c-1.035-1.656,2.484-15.527,2.484-15.527s-15.605,9.937-15.152,5.797c0.453-4.141,14.117-8.902,14.117-8.902
				s-4.399-11.024-2.226-25.154c2.174-14.13,10.869-24.688,13.819-10.714s-5.837,34.005-5.837,34.005s11.306-5.849,22.546-9.911
				c11.24-4.063,20.377-1.522,9.997,6.806C603.64,198.416,584.449,195.776,584.449,195.776z"/>
			<g>
				<path style="fill:none;stroke:#111530;stroke-width:0.5;stroke-linecap:round;stroke-linejoin:round;stroke-miterlimit:10;" d="
					M623.825,162.548c-9.161,1.553-36.541,24.947-36.541,24.947s13.56-23.084,28.001-33.176"/>
				<path style="fill:#111530;" d="M587.284,187.495c-1.776-2.991-11.387,8.695-9.627,10.766
					C579.417,200.331,589.251,190.807,587.284,187.495z"/>
			</g>
		</g>
		<g>
			<path style="fill:#4852BF;" d="M534.388,93.918c-9.109-17.598-29.812-29.191-27.742-24.015c2.07,5.176,26.5,25.568,26.5,25.568
				s8.85,15.217,11.18,14.44C546.655,109.134,534.388,93.918,534.388,93.918z"/>
			<path style="fill:#83A0FC;" d="M535.63,92.365c5.124-8.695-3.727-31.831-13.198-31.675c-9.472,0.155,5.745,31.521,10.714,34.781
				c4.969,3.26,19.566,12.261,22.825,9.316C560.69,100.523,546.344,92.986,535.63,92.365z"/>
			<g>
				<path style="fill:#111530;" d="M536.276,96.954c0.802-2.418-7.015-8.139-8.898-5.221
					C525.496,94.651,535.762,98.505,536.276,96.954z"/>
				<path style="fill:none;stroke:#111530;stroke-width:0.5;stroke-linecap:round;stroke-linejoin:round;stroke-miterlimit:10;" d="
					M501.59,82.321c9.035-0.847,25.788,9.412,25.788,9.412s-17.224-7.529-25.788-5.176"/>
			</g>
		</g>
	</g>
	<g>
		<g>
			<polygon style="fill:#926396;" points="686.321,456.594 41.502,456.594 41.502,454.149 91.384,399.143 636.438,399.143 
				686.321,454.149 			"/>
			<polygon style="fill:#783D75;" points="686.321,454.149 41.502,454.149 91.384,396.698 636.438,396.698 			"/>
		</g>
		<ellipse style="opacity:0.62;fill:#783D75;" cx="360.092" cy="422.055" rx="245.202" ry="27.825"/>
		<g>
			<g>
				<path style="fill:#4852BF;" d="M286.781,344.837c-60.867,3.727-134.562,6.211-137.257,37.679
					c-2.695,31.469,66.136,50.515,95.278,52.586c29.143,2.07,53.572,0,53.572,0s-7.66,9.523,1.242,12.215
					c8.902,2.691,35.816-0.828,41.82-8.902c6.004-8.074,0-36.851,0-36.851L286.781,344.837z"/>
				<path style="opacity:0.59;fill:#4852BF;" d="M163.002,407.039c21.04,16.719,61.268,26.604,81.8,28.063
					c23.416,1.663,43.777,0.654,50.88,0.193l8.48-26.406C304.162,408.889,235.734,440.59,163.002,407.039z"/>
				<g>
					<g>
						<path style="fill:#83A0FC;" d="M301.17,371.544c-46.271-13.974-77.633-4.565-84.777,6.257
							c8.955,0.281,17.811,0.884,26.418,2.287c0,0,15.814,15.678,31.341,23.752c15.527,8.074,34.621,4.885,34.621,4.885
							l17.558-29.418L301.17,371.544z"/>
						<g>
							<g>
								
									<path style="fill:none;stroke:#83A0FC;stroke-width:0.5;stroke-linecap:round;stroke-linejoin:round;stroke-miterlimit:10;" d="
									M226.968,378.317c6.4-8.637,16.417-12.971,19.808-13.262"/>
								
									<path style="fill:none;stroke:#83A0FC;stroke-width:0.5;stroke-linecap:round;stroke-linejoin:round;stroke-miterlimit:10;" d="
									M240.362,379.714c5.841-7.549,13.915-13.94,21.782-15.196"/>
								
									<path style="fill:none;stroke:#83A0FC;stroke-width:0.5;stroke-linecap:round;stroke-linejoin:round;stroke-miterlimit:10;" d="
									M254.995,382.251c9.013-9.879,18.083-15.591,21.725-16.255"/>
								
									<path style="fill:none;stroke:#83A0FC;stroke-width:0.5;stroke-linecap:round;stroke-linejoin:round;stroke-miterlimit:10;" d="
									M271.362,385.689c7.759-10.211,19.283-16.992,19.283-16.992"/>
								
									<path style="fill:none;stroke:#83A0FC;stroke-width:0.5;stroke-linecap:round;stroke-linejoin:round;stroke-miterlimit:10;" d="
									M285.551,389.305c7.648-9.48,18.61-16.838,18.61-16.838"/>
								
									<path style="fill:none;stroke:#83A0FC;stroke-width:0.5;stroke-linecap:round;stroke-linejoin:round;stroke-miterlimit:10;" d="
									M300.012,393.754c1.882-4.819,14.925-17.962,14.925-17.962"/>
							</g>
							<g>
								
									<path style="fill:none;stroke:#83A0FC;stroke-width:0.5;stroke-linecap:round;stroke-linejoin:round;stroke-miterlimit:10;" d="
									M261.122,383.492c-2.704,3.372-3.985,9.069-3.985,9.069"/>
								
									<path style="fill:none;stroke:#83A0FC;stroke-width:0.5;stroke-linecap:round;stroke-linejoin:round;stroke-miterlimit:10;" d="
									M274.523,386.422c-3.891,4.997-3.787,15.525-3.787,15.525"/>
								
									<path style="fill:none;stroke:#83A0FC;stroke-width:0.5;stroke-linecap:round;stroke-linejoin:round;stroke-miterlimit:10;" d="
									M288.066,390.031c-3.562,9.669-2.515,17.855-2.515,17.855"/>
							</g>
						</g>
					</g>
					<g>
						<path style="fill:#E39C71;" d="M341.437,438.415c6.004-8.074,0-36.851,0-36.851l-5.456-5.662
							c-2.696,1.661-5.406,2.975-7.587,3.281c-8.825,1.242-21.595-3.232-21.595-3.232c-9.977,7.269-16.595,27.421-11.889,39.394
							c2.23-0.138,3.464-0.242,3.464-0.242s-7.66,9.523,1.242,12.215C308.519,450.008,335.433,446.489,341.437,438.415z"/>
						<path style="opacity:0.52;fill:#E39C71;" d="M341.437,401.563l-5.456-5.662c-2.696,1.661-5.406,2.975-7.587,3.281
							c-8.825,1.242-21.595-3.232-21.595-3.232c-9.977,7.269-16.595,27.421-11.889,39.394c1.013-0.063,1.809-0.118,2.388-0.16
							c0.725-0.462,1.562-0.812,2.519-1.012c2.899-3.92,5.568-7.993,7.72-12.439c0.865-1.788,1.723-5.079,3.076-5.83
							c7.48-12.529,15.717-6.557,17.663,3.561c1.599,8.314,6.992,13.792,14.443,16.442
							C346.451,425.614,341.437,401.563,341.437,401.563z"/>
						<g>
							
								<path style="fill:none;stroke:#87373A;stroke-width:0.5;stroke-linecap:round;stroke-linejoin:round;stroke-miterlimit:10;" d="
								M328.394,421.645c-0.621-8.902-7.867-18.219-15.113-9.316c-7.246,8.902-8.488,16.355-14.906,22.773"/>
							
								<path style="fill:none;stroke:#87373A;stroke-width:0.5;stroke-linecap:round;stroke-linejoin:round;stroke-miterlimit:10;" d="
								M314.937,430.755c5.59,6.211,21.117,9.109,26.5,7.66"/>
							
								<path style="fill:none;stroke:#87373A;stroke-width:0.5;stroke-linecap:round;stroke-linejoin:round;stroke-miterlimit:10;" d="
								M313.384,436.965c-3.416,5.59-3.643,9.375-9.223,11.105"/>
							
								<path style="fill:none;stroke:#87373A;stroke-width:0.5;stroke-linecap:round;stroke-linejoin:round;stroke-miterlimit:10;" d="
								M319.906,440.071c-0.207,4.555-0.374,6.092-1.843,7.394"/>
							
								<path style="fill:none;stroke:#87373A;stroke-width:0.5;stroke-linecap:round;stroke-linejoin:round;stroke-miterlimit:10;" d="
								M327.152,441.313c0.207,2.277-0.82,4.587-0.82,4.587"/>
							
								<line style="fill:none;stroke:#87373A;stroke-width:0.5;stroke-linecap:round;stroke-linejoin:round;stroke-miterlimit:10;" x1="333.57" y1="441.313" x2="333.162" y2="443.768"/>
						</g>
					</g>
					<path style="opacity:0.59;fill:#4852BF;" d="M342.991,410.89c-0.732-5.378-1.555-9.327-1.555-9.327l-26.258-27.252
						c-12.035-8.785-21.816-15.515-21.816-15.515c-46.746-1.123-102.458,7.181-97.375,20.833c0,0,55.355-9.175,141.826,28.256
						C343.572,410.379,338.98,409.41,342.991,410.89z"/>
				</g>
				<path style="fill:none;stroke:#111530;stroke-width:0.5;stroke-linecap:round;stroke-linejoin:round;stroke-miterlimit:10;" d="
					M321.355,399.183c-9.316,0-24.843-8.074-52.171-13.974c-27.328-5.9-57.725-12.111-85.847-2.174"/>
			</g>
			<g>
				<path style="fill:#E39C71;" d="M353.962,263.551c-9.006,13.898-12.111,30.15-7.142,41.744
					c4.969,11.594-67.699,43.89-67.699,43.89s-18.289-29.323-12.25-64.193c6.039-34.871,11.318-47.292,11.318-47.292
					L353.962,263.551z"/>
				<path style="opacity:0.52;fill:#E39C71;" d="M346.819,305.295c-4.969-11.594-1.863-27.846,7.143-41.744l-47.85-16.325
					l-30.098,5.951c0,0,1.644,13.396,13.863,46.61c5.24,14.242,13.84,25.353,21.958,33.41
					C330.39,323.329,349.445,311.421,346.819,305.295z"/>
			</g>
			<g>
				<path style="fill:#4852BF;" d="M345.104,299.693c-26.855,4.774-72.475,36.044-72.475,36.044s10.321,39.677,55.764,73.61
					c45.443,33.933,123.741,39.212,158.346,40.144c34.605,0.932,84.918,4.118,89.334-42.855c4.416-46.973-3.178-96-15.6-131.536
					c-12.422-35.536-24.222-72.284-31.676-87.604c-7.453-15.32-18.633-37.99-21.427-33.176c-2.795,4.813-2.795,23.135-11.18,51.085
					c-8.385,27.949,13.353,30.235,13.353,30.235s1.242,24.303-2.484,58.263c-3.727,33.96,3.312,66.033,8.281,78.566
					c-29.531-7.637-56.566-13.492-79.913-16.715c0,0-3.262-18.234-38.071-29.348C349.718,311.195,345.104,299.693,345.104,299.693z"
					/>
				<path style="opacity:0.59;fill:#4852BF;" d="M509.545,300.797c-1.015-0.871-1.986-1.637-2.917-2.309
					c-2.655,32.229,3.97,62.012,8.714,73.98c14.906,4.253,31.393,9.784,31.393,9.784S542.67,329.216,509.545,300.797z"/>
				<path style="fill:#83A0FC;" d="M560.474,275.099c-5.98-17.107-11.814-34.487-17.09-49.63
					c-5.001,1.137-22.746,5.613-33.713,14.079c0.13,5.795,0.192,17.7-0.801,33.405c14.412,19.497,43.338,40.236,53.26,59.244
					c12.422,23.797,2.07,68.538-36.851,69.749c-38.922,1.211-64.179-22.328-89.851-46.194c0,0-3.262-18.234-38.071-29.348
					c-13.394-4.276-23.386-8.26-30.832-11.777c-22.454,15.895-53.516,38.951-43.721,38.247
					c14.906-1.071,41.406,10.181,63.844,29.376c22.438,19.195,71.861,65.745,130.764,56.53c39.208-6.134,54.101-31.387,59.68-47.591
					C578.765,349.114,571.539,306.754,560.474,275.099z"/>
				<path style="fill:none;stroke:#111530;stroke-width:0.5;stroke-linecap:round;stroke-linejoin:round;stroke-miterlimit:10;" d="
					M515.341,372.467c14.906,4.253,31.393,9.784,31.393,9.784"/>
				<g>
					
						<path style="fill:none;stroke:#83A0FC;stroke-width:0.5;stroke-linecap:round;stroke-linejoin:round;stroke-miterlimit:10;" d="
						M349.215,358.796c6.714-9.197,9.406-31.4,9.406-31.4"/>
					
						<path style="fill:none;stroke:#83A0FC;stroke-width:0.5;stroke-linecap:round;stroke-linejoin:round;stroke-miterlimit:10;" d="
						M371.663,319.081c5.383,17.89-5.384,48.46-5.384,48.46"/>
					
						<path style="fill:none;stroke:#83A0FC;stroke-width:0.5;stroke-linecap:round;stroke-linejoin:round;stroke-miterlimit:10;" d="
						M389.067,323.65c8.267,21.188-5.573,55.98-5.573,55.98"/>
					
						<path style="fill:none;stroke:#83A0FC;stroke-width:0.5;stroke-linecap:round;stroke-linejoin:round;stroke-miterlimit:10;" d="
						M408.23,330.518c7.531,20.53-8.183,63.235-8.183,63.235"/>
					
						<path style="fill:none;stroke:#83A0FC;stroke-width:0.5;stroke-linecap:round;stroke-linejoin:round;stroke-miterlimit:10;" d="
						M426.072,341.789c3.145,20.232-3.764,50.562-10.971,63.967"/>
					
						<path style="fill:none;stroke:#83A0FC;stroke-width:0.5;stroke-linecap:round;stroke-linejoin:round;stroke-miterlimit:10;" d="
						M441.729,361.59c4.05,18.235-9.977,55.625-9.977,55.625"/>
					
						<path style="fill:none;stroke:#83A0FC;stroke-width:0.5;stroke-linecap:round;stroke-linejoin:round;stroke-miterlimit:10;" d="
						M456.117,374.287c5.81,19.202-6.978,52.575-6.978,52.575"/>
					
						<path style="fill:none;stroke:#83A0FC;stroke-width:0.5;stroke-linecap:round;stroke-linejoin:round;stroke-miterlimit:10;" d="
						M472.491,386.444c4.343,15.948-3.466,48.324-3.466,48.324"/>
					
						<path style="fill:none;stroke:#83A0FC;stroke-width:0.5;stroke-linecap:round;stroke-linejoin:round;stroke-miterlimit:10;" d="
						M487.212,394.465c4.114,12.481,0,44.441,0,44.441"/>
					
						<path style="fill:none;stroke:#83A0FC;stroke-width:0.5;stroke-linecap:round;stroke-linejoin:round;stroke-miterlimit:10;" d="
						M501.877,399.524c7.875,9.493,5.801,40.289,5.801,40.289"/>
					
						<path style="fill:none;stroke:#83A0FC;stroke-width:0.5;stroke-linecap:round;stroke-linejoin:round;stroke-miterlimit:10;" d="
						M516.402,401.789c8.463,9.298,8.45,35.537,8.45,35.537"/>
					
						<path style="fill:none;stroke:#83A0FC;stroke-width:0.5;stroke-linecap:round;stroke-linejoin:round;stroke-miterlimit:10;" d="
						M529.862,401.584c10.53,8.675,12.306,29.612,12.306,29.612"/>
					
						<path style="fill:none;stroke:#83A0FC;stroke-width:0.5;stroke-linecap:round;stroke-linejoin:round;stroke-miterlimit:10;" d="
						M542.167,398.11c9.611,5.109,16.748,21.558,16.748,21.558"/>
					
						<path style="fill:none;stroke:#83A0FC;stroke-width:0.5;stroke-linecap:round;stroke-linejoin:round;stroke-miterlimit:10;" d="
						M551.95,391.587c9.973,1.695,18.758,13.379,18.758,13.379"/>
					
						<path style="fill:none;stroke:#83A0FC;stroke-width:0.5;stroke-linecap:round;stroke-linejoin:round;stroke-miterlimit:10;" d="
						M559.572,382.251c8.769,1.508,17.52,8.94,17.52,8.94"/>
					
						<path style="fill:none;stroke:#83A0FC;stroke-width:0.5;stroke-linecap:round;stroke-linejoin:round;stroke-miterlimit:10;" d="
						M564.57,371.053c4.806,1.112,12.76,7.323,12.76,7.323"/>
					
						<path style="fill:none;stroke:#83A0FC;stroke-width:0.5;stroke-linecap:round;stroke-linejoin:round;stroke-miterlimit:10;" d="
						M566.962,358.143c3.036,0.566,9.923,3.919,9.923,3.919"/>
					
						<path style="fill:none;stroke:#83A0FC;stroke-width:0.5;stroke-linecap:round;stroke-linejoin:round;stroke-miterlimit:10;" d="
						M565.379,340.664c5.33,0,9.95,2.138,9.95,2.138"/>
					
						<path style="fill:none;stroke:#83A0FC;stroke-width:0.5;stroke-linecap:round;stroke-linejoin:round;stroke-miterlimit:10;" d="
						M557.246,324.539c9.439,0.838,16.271,4.15,16.271,4.15"/>
					
						<path style="fill:none;stroke:#83A0FC;stroke-width:0.5;stroke-linecap:round;stroke-linejoin:round;stroke-miterlimit:10;" d="
						M546.564,312.146c10.682-1.297,23.973,0,23.973,0"/>
					
						<path style="fill:none;stroke:#83A0FC;stroke-width:0.5;stroke-linecap:round;stroke-linejoin:round;stroke-miterlimit:10;" d="
						M535.162,300.797c12.684-2.78,24.41-5.15,31.372-5.803"/>
					
						<path style="fill:none;stroke:#83A0FC;stroke-width:0.5;stroke-linecap:round;stroke-linejoin:round;stroke-miterlimit:10;" d="
						M521.479,287.355c18.499-1.314,39.999-9.321,39.999-9.321"/>
					
						<path style="fill:none;stroke:#83A0FC;stroke-width:0.5;stroke-linecap:round;stroke-linejoin:round;stroke-miterlimit:10;" d="
						M508.87,272.953c23.655-0.576,46.417-12.837,46.417-12.837"/>
					
						<path style="fill:none;stroke:#83A0FC;stroke-width:0.5;stroke-linecap:round;stroke-linejoin:round;stroke-miterlimit:10;" d="
						M509.525,259.323c20.102-0.196,40.208-15.424,40.208-15.424"/>
				</g>
				<path style="opacity:0.59;fill:#83A0FC;" d="M404.662,329.024c-2.272-0.905-4.689-1.784-7.305-2.62
					c-13.394-4.276-23.386-8.26-30.832-11.777c-9.934,7.032-21.548,15.463-30.568,22.621c9.842,3.936,21.22,6.422,33.669,7.977
					C392.138,348.037,401.12,338.248,404.662,329.024z"/>
				<path style="fill:#323A93;" d="M303.887,387.298c16.558-23.461,46.963-54.783,73.884-67.825l0,0
					c-29.397-11.64-32.666-19.78-32.666-19.78c-26.855,4.774-72.474,36.044-72.474,36.044S279.031,360.298,303.887,387.298z"/>
				<g>
					<path style="fill:#E39C71;" d="M507.371,154.318c-2.795,4.813-2.795,23.135-11.18,51.085
						c-8.385,27.949,13.353,30.235,13.353,30.235s0.274,5.363,0.178,14.568h0c18.724-0.608,30.538-8.672,37.011-15.051
						c-7.054-20.511-13.327-38.185-17.936-47.66C521.345,172.175,510.166,149.505,507.371,154.318z"/>
					<g style="opacity:0.51;">
						<path style="fill:#E39C71;" d="M494.3,216.028c11.468-5.602,19.968-31.547,24.084-49.049
							c-4.919-8.95-9.386-15.462-11.013-12.661c-2.795,4.813-2.795,23.136-11.18,51.085
							C494.972,209.469,494.405,212.977,494.3,216.028z"/>
						<path style="fill:#E39C71;" d="M509.545,235.638c0,0,0.274,5.363,0.178,14.568l0,0c2.735-0.089,5.305-0.353,7.75-0.731
							c4.921-11.704,8.087-24.006,8.087-24.006S523.209,231.385,509.545,235.638z"/>
					</g>
				</g>
				<path style="opacity:0.59;fill:#4852BF;" d="M346.568,340.79c10.272-8.785,20.987-16.369,31.202-21.318l0,0
					c-29.397-11.64-32.666-19.78-32.666-19.78c-10.933,1.944-24.976,8.279-37.785,15.108
					C315.672,328.072,329.391,336.031,346.568,340.79z"/>
			</g>
			<g>
				<g>
					<g>
						<path style="fill:#E39C71;" d="M344.828,287.418c5.511-20.424,17.201-34.502,26.883-48.477s15.272-27.431,17.964-40.267
							c2.691-12.836,3.727-20.703,3.727-20.703l11.759-6.779c0,0,11.635,10.143,34.823,9.703
							c23.187-0.44,32.411-28.182,29.042-37.291c-3.37-9.109-18.173-22.825-27.178-26.241c0,0-2.019-5.59-4.037-6.056
							c-2.018-0.466-3.882,2.95-3.882,2.95s-12.577-5.124-23.446-1.397c-10.869,3.727-13.198,17.546-14.44,23.446l-9.006,5.279
							c0,0-0.155-50.001,17.546-54.735c17.701-4.734,68.32,33.293,78.878,44.402c10.558,11.109,11.801,24.928,14.751,29.897
							c2.95,4.969,2.174,12.887,3.571,13.353c1.397,0.466,2.434-10.595,4.721-15.683c2.287-5.088,3.198-4.503,3.198-4.503
							s7.162,8.695,10.801,14.751c3.639,6.056,6.279,4.503,6.279,4.503s2.64,2.019,3.882-0.311s1.087-5.435,1.087-5.435
							s1.863,4.037,2.795,0c0.932-4.037,0.155-16.769-6.521-27.173c0,0,10.403,14.906,11.956,13.664
							c1.553-1.242-4.081-15.061-18.499-29.346c-14.418-14.285-83.67-94.406-129.941-82.915
							c-46.271,11.49-50.308,111.604-50.308,111.604v5.161c0,0-23.601,21.531-42.234,33.746
							c-18.633,12.215-25.465,19.978-28.26,30.537s1.893,24.223,1.893,24.223l-1.215,14.553
							C289.76,278.38,314.622,286.383,344.828,287.418z"/>
						<g style="opacity:0.52;">
							<path style="fill:#E39C71;" d="M386.648,86.851c-4.123,13.957-1.489,26.978,1.597,35.689
								c1.741-14.676,5.984-32.921,16.335-35.689c9.634-2.577,29.021,7.515,46.392,19.039
								C436.247,85.838,393.968,62.075,386.648,86.851z"/>
							<path style="fill:#E39C71;" d="M403.96,152.714c-20.289,8.902-19.432,27.194-19.432,27.194l8.036,3.502
								c0.583-3.504,0.838-5.438,0.838-5.438l11.759-6.779c0,0,2.702,2.348,8.081,4.736l0.656-0.442L403.96,152.714z"/>
						</g>
						<g>
							
								<path style="fill:none;stroke:#87373A;stroke-width:0.5;stroke-linecap:round;stroke-linejoin:round;stroke-miterlimit:10;" d="
								M514.979,153.661c10.559-4.156,13.974-18.751,13.974-18.751"/>
							
								<path style="fill:none;stroke:#87373A;stroke-width:0.5;stroke-linecap:round;stroke-linejoin:round;stroke-miterlimit:10;" d="
								M531.749,167.827c-1.863-11.956-8.187-21.242-8.187-21.242"/>
							
								<path style="fill:none;stroke:#87373A;stroke-width:0.5;stroke-linecap:round;stroke-linejoin:round;stroke-miterlimit:10;" d="
								M526.78,173.572c-2.329-12.732-7.818-22.177-7.818-22.177"/>
						</g>
					</g>
					
						<path style="fill:none;stroke:#87373A;stroke-width:0.5;stroke-linecap:round;stroke-linejoin:round;stroke-miterlimit:10;" d="
						M396.041,136.307c-0.569,4.814,0,8.747,0,8.747"/>
					
						<path style="fill:none;stroke:#87373A;stroke-width:0.5;stroke-linecap:round;stroke-linejoin:round;stroke-miterlimit:10;" d="
						M423.835,126.214c-3.52-5.59,1.15-14.265,1.15-14.265"/>
					<path style="fill:none;stroke:#111530;stroke-linecap:round;stroke-linejoin:round;stroke-miterlimit:10;" d="M446.194,123.119
						c-9.109,1.646-6.625,10.342-6.625,10.342"/>
					<path style="fill:#783D75;" d="M450.127,136.307c2.493,1.87,10.559-3.882,6.832-6.573
						C453.233,127.042,446.194,133.357,450.127,136.307z"/>
					
						<path style="fill:none;stroke:#87373A;stroke-width:0.5;stroke-linecap:round;stroke-linejoin:round;stroke-miterlimit:10;" d="
						M422.521,150.023c3.798,5.228,4.574,10.507,4.574,10.507"/>
				</g>
				<g>
					<path style="fill:#783D75;" d="M430.252,148.573c6.004,6.832,2.372,17.598-4.348,17.598c-5.933,0-11.594-10.559-9.523-17.598
						c0,0-12.629-4.318-15.527,5.087c-2.898,9.405,4.306,17.532,4.306,17.532s-10.724,6.779-8.032,18.372
						c2.691,11.594,9.523,22.98,13.457,26.293c3.934,3.313,6.625,2.898,6.625,2.898s-19.875,5.59-14.906,16.976
						c4.969,11.387,10.144,14.78,28.984,15.878s29.605-9.46,27.328-19.605c-2.277-10.145-22.152-15.527-22.152-15.527
						s12.215-7.66,26.914-10.766c14.699-3.105,26.914-20.082,22.773-36.644c-4.141-16.562-18.505-28.389-18.505-28.389
						s-1.475,9.142-11.204,9.549C442.377,150.818,439.259,145.054,430.252,148.573z"/>
					<g>
						<g>
							
								<path style="fill:none;stroke:#783D75;stroke-width:0.75;stroke-linecap:round;stroke-linejoin:round;stroke-miterlimit:10;" d="
								M421.971,247.533c17.183,17.805,34.365,4.401,35.711-7.427"/>
							
								<path style="fill:none;stroke:#783D75;stroke-width:0.75;stroke-linecap:round;stroke-linejoin:round;stroke-miterlimit:10;" d="
								M433.358,216.893c31.261-3.105,27.227,12.351,24.325,19.875"/>
						</g>
						
							<path style="fill:none;stroke:#783D75;stroke-width:0.75;stroke-linecap:round;stroke-linejoin:round;stroke-miterlimit:10;" d="
							M484.494,150.023c-6.418-8.902-16.848-9.342-16.848-9.342s8.187-3.472,16.848,1.475"/>
					</g>
					<g>
						
							<path style="fill:none;stroke:#783D75;stroke-width:0.5;stroke-linecap:round;stroke-linejoin:round;stroke-miterlimit:10;" d="
							M436.902,147.465c-0.853,11.874,16.122,14.565,20.781,31.541c4.659,16.977-25.981,36.866-27.637,37.48
							c-1.656,0.614-10.352,0.821-15.941-8.081c-5.59-8.902,2.194-19.975-8.944-37.212"/>
						
							<path style="fill:none;stroke:#783D75;stroke-width:0.5;stroke-linecap:round;stroke-linejoin:round;stroke-miterlimit:10;" d="
							M463.015,148.084c14.027,17.052,15.683,31.13,8.023,44.38c-7.66,13.25-23.579,12.865-33.942,19.268"/>
					</g>
					<path style="opacity:0.62;fill:#783D75;" d="M414.104,216.74c-10.881-3.259-1.143-10.621-1.143-10.621
						s-1.172-7.035,1.623-16.139c2.476-8.067,18.214-15.821,18.001-29.237c-1.143,3.137-3.582,5.428-6.681,5.428
						c-5.933,0-11.594-10.559-9.523-17.598c0,0-12.629-4.318-15.527,5.087c-2.898,9.405,4.306,17.532,4.306,17.532
						s-10.724,6.779-8.032,18.372c2.691,11.594,9.523,22.98,13.457,26.293c3.934,3.313,6.625,2.898,6.625,2.898
						s-19.875,5.59-14.906,16.976c2.383,5.462,4.818,9.081,8.782,11.493l0,0c-0.121-13.972,21.238-23.501,20.577-27.891
						C431.002,214.945,424.985,219.999,414.104,216.74z"/>
					<path style="fill:#83A0FC;" d="M410.585,215.858c-4.751,5.566,4.785,5.383,14.4,4.141c9.615-1.242,17.866-0.621,16.846-4.141
						C440.811,212.339,417.831,207.37,410.585,215.858z"/>
				</g>
			</g>
			<g>
				<path style="fill:#4852BF;" d="M389.675,198.674c2.231-10.643,3.322-17.853,3.63-20.011c-7.706-1.283-8.806-7.316-8.806-7.316
					s3.52-16.355,2.536-29.76c0,0-0.034-10.971,1.749-23.122c-13.777-12.151-27.415-14.445-40.975-11.287
					c-5.693,24.527-6.579,46.483-6.579,46.483v5.161c0,0-23.601,21.531-42.234,33.746c-18.633,12.215-25.465,19.978-28.259,30.537
					c-2.795,10.559,1.893,24.222,1.893,24.222l-1.215,14.554c18.346,16.5,43.208,24.503,73.414,25.538
					c5.511-20.424,17.201-34.502,26.883-48.477S386.983,211.51,389.675,198.674z"/>
				<path style="opacity:0.59;fill:#4852BF;" d="M393.304,178.663c-7.705-1.284-8.806-7.316-8.806-7.316
					c-8.811,27.633-82.692,66.049-86.029,107.158c0,0,0.001,0,0.001,0c3.386,1.358,6.894,2.556,10.521,3.599
					c0.026,0.008,0.053,0.014,0.079,0.021c1.687,0.484,3.403,0.929,5.141,1.346c0.376,0.09,0.758,0.172,1.137,0.259
					c1.398,0.322,2.811,0.625,4.241,0.906c0.532,0.104,1.068,0.202,1.603,0.3c1.302,0.239,2.618,0.46,3.946,0.666
					c0.616,0.095,1.233,0.189,1.854,0.277c1.287,0.182,2.591,0.344,3.901,0.495c0.65,0.075,1.296,0.155,1.952,0.223
					c1.372,0.141,2.763,0.257,4.16,0.366c0.595,0.046,1.181,0.103,1.78,0.144c1.99,0.134,4.001,0.242,6.04,0.312
					c0.004-0.013,0.008-0.026,0.012-0.039c5.515-20.403,16.714-34.818,26.871-48.437c0,0,0.001-0.001,0.001-0.001
					c9.682-13.974,15.271-27.431,17.963-40.266c2.231-10.641,3.322-17.85,3.63-20.01
					C393.305,178.664,393.305,178.663,393.304,178.663C393.305,178.663,393.305,178.663,393.304,178.663z"/>
				<path style="fill:#83A0FC;" d="M380.048,158.511c3.887-19.99,1.69-36.666-0.72-46.881c-5.855-3.356-11.687-5.102-17.501-5.577
					c4.075,8.794,10.18,28.078,2.383,54.476c-10.869,36.8-41.923,37.424-65.835,56.211c-18.949,14.887-19.756,37.97-15.104,54.056
					c16.713,10.503,37.424,15.795,61.558,16.622c3.387-12.552,9.11-22.703,15.264-31.911c-19.442,5.35-46.444,1.996-26.936-24.555
					C354.894,201.366,373.526,192.05,380.048,158.511z"/>
				<g>
					
						<path style="fill:none;stroke:#83A0FC;stroke-width:0.5;stroke-linecap:round;stroke-linejoin:round;stroke-miterlimit:10;" d="
						M365.185,115.156c8.652,0.189,15.909,5.94,15.909,5.94"/>
					
						<path style="fill:none;stroke:#83A0FC;stroke-width:0.5;stroke-linecap:round;stroke-linejoin:round;stroke-miterlimit:10;" d="
						M367.235,124.851c5.671-0.345,14.745,5.25,14.745,5.25"/>
					
						<path style="fill:none;stroke:#83A0FC;stroke-width:0.5;stroke-linecap:round;stroke-linejoin:round;stroke-miterlimit:10;" d="
						M367.942,133.46c8.69,0.518,14.199,5.59,14.199,5.59"/>
					
						<path style="fill:none;stroke:#83A0FC;stroke-width:0.5;stroke-linecap:round;stroke-linejoin:round;stroke-miterlimit:10;" d="
						M367.713,141.947c7.263,1.865,11.372,3.783,13.872,6.136"/>
					
						<path style="fill:none;stroke:#83A0FC;stroke-width:0.5;stroke-linecap:round;stroke-linejoin:round;stroke-miterlimit:10;" d="
						M366.533,150.859c7.614,2.476,13.514,7.652,13.514,7.652"/>
					
						<path style="fill:none;stroke:#83A0FC;stroke-width:0.5;stroke-linecap:round;stroke-linejoin:round;stroke-miterlimit:10;" d="
						M364.21,160.529c8.695,3.364,13.024,8.948,13.024,8.948"/>
					
						<path style="fill:none;stroke:#83A0FC;stroke-width:0.5;stroke-linecap:round;stroke-linejoin:round;stroke-miterlimit:10;" d="
						M360.316,170.639c7.413,1.121,13.561,7.399,13.561,7.399"/>
					
						<path style="fill:none;stroke:#83A0FC;stroke-width:0.5;stroke-linecap:round;stroke-linejoin:round;stroke-miterlimit:10;" d="
						M355.35,178.887c5.754,1.88,10.771,5.496,14.276,7.053"/>
					
						<path style="fill:none;stroke:#83A0FC;stroke-width:0.5;stroke-linecap:round;stroke-linejoin:round;stroke-miterlimit:10;" d="
						M350.403,184.661c5.526,3.04,14.486,8.216,14.486,8.216"/>
					
						<path style="fill:none;stroke:#83A0FC;stroke-width:0.5;stroke-linecap:round;stroke-linejoin:round;stroke-miterlimit:10;" d="
						M340.225,192.878c8.043,3.52,18.744,7.367,18.744,7.367"/>
					
						<path style="fill:none;stroke:#83A0FC;stroke-width:0.5;stroke-linecap:round;stroke-linejoin:round;stroke-miterlimit:10;" d="
						M329.916,198.831c6.345,3.363,21.587,9.918,21.587,9.918"/>
					
						<path style="fill:none;stroke:#83A0FC;stroke-width:0.5;stroke-linecap:round;stroke-linejoin:round;stroke-miterlimit:10;" d="
						M315.446,206.119c7.358,4.357,27.481,12.466,27.481,12.466"/>
					
						<path style="fill:none;stroke:#83A0FC;stroke-width:0.5;stroke-linecap:round;stroke-linejoin:round;stroke-miterlimit:10;" d="
						M302.255,213.885c11.439,10.462,30.9,17.068,30.9,17.068"/>
					
						<path style="fill:none;stroke:#83A0FC;stroke-width:0.5;stroke-linecap:round;stroke-linejoin:round;stroke-miterlimit:10;" d="
						M289.847,225.469c6.664,6.33,31.573,14.6,37.441,16.055"/>
					
						<path style="fill:none;stroke:#83A0FC;stroke-width:0.5;stroke-linecap:round;stroke-linejoin:round;stroke-miterlimit:10;" d="
						M283.095,238.942c16.522,11.283,39.645,18.395,53.341,17.841"/>
					
						<path style="fill:none;stroke:#83A0FC;stroke-width:0.5;stroke-linecap:round;stroke-linejoin:round;stroke-miterlimit:10;" d="
						M280.896,251.69c20.998,15.718,55.079,22.421,69.507,20.623"/>
				</g>
				<path style="opacity:0.59;fill:#83A0FC;" d="M350.23,210.181c-23.234,20.721-49.775,44.043-51.758,68.305
					c13.56,5.445,29.074,8.341,46.356,8.933c3.387-12.552,9.11-22.703,15.264-31.911c-19.442,5.35-46.444,1.996-26.936-24.555
					C339.147,222.798,344.9,216.187,350.23,210.181z"/>
			</g>
		</g>
	</g>
	<g>
		<g>
			<path style="fill:#FFFFFF;" d="M74.174,108.527h-0.759C73.673,108.531,73.925,108.531,74.174,108.527z"/>
			<path style="fill:#FFFFFF;" d="M87.258,94.685v0.856C87.263,95.26,87.263,94.974,87.258,94.685z"/>
			<path style="fill:#FFFFFF;" d="M87.265,95.541v-0.856C87.261,94.974,87.261,95.26,87.265,95.541z"/>
			<path style="fill:#FFFFFF;" d="M100.349,108.527c0.249,0.003,0.502,0.004,0.759,0H100.349z"/>
			<path style="fill:#FFFFFF;" d="M87.265,95.541l-0.007,0.437v-0.437c-0.131,8.237-4.164,12.869-13.084,12.986
				c8.92,0.117,12.953,4.749,13.084,12.986v-0.437l0.007,0.437c0.131-8.237,4.164-12.869,13.084-12.986
				C91.429,108.41,87.396,103.778,87.265,95.541z"/>
		</g>
		<g>
			<path style="fill:#FFFFFF;" d="M606.007,108.71h-1.083C605.291,108.715,605.651,108.715,606.007,108.71z"/>
			<path style="fill:#FFFFFF;" d="M624.672,88.962v1.221C624.679,89.782,624.679,89.375,624.672,88.962z"/>
			<path style="fill:#FFFFFF;" d="M624.682,90.183v-1.221C624.676,89.375,624.676,89.782,624.682,90.183z"/>
			<path style="fill:#FFFFFF;" d="M643.348,108.71c0.356,0.005,0.716,0.005,1.083,0H643.348z"/>
			<path style="fill:#FFFFFF;" d="M624.682,90.183l-0.01,0.624v-0.624c-0.187,11.752-5.941,18.36-18.665,18.527
				c12.725,0.167,18.478,6.775,18.665,18.527v-0.624l0.01,0.624c0.187-11.752,5.941-18.36,18.666-18.527
				C630.623,108.543,624.87,101.935,624.682,90.183z"/>
		</g>
		<g>
			<path style="fill:#FFFFFF;" d="M649.04,150.318h-0.524C648.693,150.321,648.867,150.32,649.04,150.318z"/>
			<path style="fill:#FFFFFF;" d="M658.075,140.759v0.591C658.078,141.156,658.078,140.959,658.075,140.759z"/>
			<path style="fill:#FFFFFF;" d="M658.08,141.35v-0.591C658.076,140.959,658.076,141.156,658.08,141.35z"/>
			<path style="fill:#FFFFFF;" d="M667.114,150.318c0.172,0.002,0.346,0.003,0.524,0H667.114z"/>
			<path style="fill:#FFFFFF;" d="M658.08,141.35l-0.005,0.302v-0.302c-0.091,5.688-2.876,8.887-9.035,8.968
				c6.159,0.081,8.944,3.279,9.035,8.968v-0.302l0.005,0.302c0.09-5.688,2.875-8.887,9.035-8.968
				C660.955,150.238,658.17,147.039,658.08,141.35z"/>
		</g>
		<g>
			<path style="fill:#FFFFFF;" d="M662.755,258.631h-0.524C662.408,258.633,662.583,258.633,662.755,258.631z"/>
			<path style="fill:#FFFFFF;" d="M671.79,249.072v0.591C671.793,249.469,671.793,249.272,671.79,249.072z"/>
			<path style="fill:#FFFFFF;" d="M671.794,249.663v-0.591C671.791,249.272,671.791,249.469,671.794,249.663z"/>
			<path style="fill:#FFFFFF;" d="M680.829,258.631c0.172,0.002,0.346,0.003,0.524,0H680.829z"/>
			<path style="fill:#FFFFFF;" d="M671.794,249.663l-0.005,0.302v-0.302c-0.091,5.688-2.876,8.887-9.035,8.968
				c6.159,0.081,8.944,3.279,9.035,8.968v-0.302l0.005,0.302c0.091-5.688,2.875-8.887,9.035-8.968
				C674.67,258.55,671.885,255.351,671.794,249.663z"/>
		</g>
		<g>
			<path style="fill:#FFFFFF;" d="M129.653,83.325h-0.524C129.306,83.327,129.481,83.327,129.653,83.325z"/>
			<path style="fill:#FFFFFF;" d="M138.688,73.766v0.591C138.691,74.163,138.691,73.966,138.688,73.766z"/>
			<path style="fill:#FFFFFF;" d="M138.693,74.357v-0.591C138.689,73.966,138.689,74.163,138.693,74.357z"/>
			<path style="fill:#FFFFFF;" d="M147.727,83.325c0.172,0.002,0.347,0.003,0.524,0H147.727z"/>
			<path style="fill:#FFFFFF;" d="M138.693,74.357l-0.005,0.302v-0.302c-0.09,5.688-2.876,8.887-9.035,8.968
				c6.159,0.081,8.944,3.279,9.035,8.968v-0.302l0.005,0.302c0.091-5.688,2.876-8.887,9.035-8.968
				C141.568,83.244,138.783,80.045,138.693,74.357z"/>
		</g>
	</g>
</g>
</svg>
